<svg width="24" height="24" viewBox="0 0 24 24" fill="none" xmlns="http://www.w3.org/2000/svg">
<mask id="mask0_503_7241" style="mask-type:alpha" maskUnits="userSpaceOnUse" x="0" y="0" width="24" height="24">
<rect width="24" height="24" fill="#D9D9D9"/>
</mask>
<g mask="url(#mask0_503_7241)">
<path d="M17.5005 19.3078C16.8707 19.3078 16.3382 19.0903 15.903 18.6553C15.4677 18.2204 15.25 17.6881 15.25 17.0583C15.25 16.4284 15.4675 15.8958 15.9025 15.4605C16.3375 15.0253 16.87 14.8078 17.5 14.8078C17.6718 14.8078 17.8458 14.8298 18.022 14.874C18.1983 14.9182 18.3769 14.9948 18.5577 15.1038V10.827C18.5577 10.5708 18.6443 10.3562 18.8175 10.183C18.9908 10.0097 19.2055 9.92301 19.4615 9.92301H20.8652C21.1103 9.92301 21.3189 10.0078 21.4913 10.1775C21.6638 10.347 21.75 10.5571 21.75 10.8078C21.75 11.0526 21.6638 11.2613 21.4913 11.4338C21.3189 11.6061 21.1103 11.6923 20.8652 11.6923H19.75V17.0578C19.75 17.6878 19.5326 18.2203 19.0977 18.6553C18.6627 19.0903 18.1303 19.3078 17.5005 19.3078ZM4.15375 19.3078C3.89775 19.3078 3.68308 19.2211 3.50975 19.0478C3.33658 18.8746 3.25 18.6599 3.25 18.4038V17.0845C3.25 16.5845 3.383 16.1284 3.649 15.7163C3.915 15.3041 4.2705 14.9858 4.7155 14.7615C5.71667 14.2705 6.71692 13.9054 7.71625 13.6663C8.71558 13.4273 9.72683 13.3078 10.75 13.3078C11.159 13.3078 11.5619 13.3251 11.9588 13.3598C12.3554 13.3943 12.7454 13.4532 13.1288 13.5365C13.3891 13.5903 13.5667 13.7019 13.6615 13.8713C13.7563 14.0404 13.7903 14.2179 13.7635 14.4038C13.7365 14.5898 13.6503 14.7488 13.5048 14.8808C13.3593 15.0128 13.1731 15.0551 12.9462 15.0078C12.5962 14.9411 12.2376 14.8911 11.8702 14.8578C11.5029 14.8244 11.1295 14.8078 10.75 14.8078C9.832 14.8078 8.9275 14.918 8.0365 15.1385C7.1455 15.359 6.26792 15.6795 5.40375 16.1C5.20258 16.2025 5.04333 16.3416 4.926 16.5173C4.80867 16.6929 4.75 16.882 4.75 17.0845V17.8078H12.4115C12.6615 17.8078 12.849 17.8857 12.974 18.0415C13.099 18.1973 13.1615 18.3688 13.1615 18.556C13.1615 18.743 13.099 18.915 12.974 19.072C12.849 19.2292 12.6615 19.3078 12.4115 19.3078H4.15375ZM10.75 11.6923C9.7875 11.6923 8.96358 11.3496 8.27825 10.6643C7.59275 9.97876 7.25 9.15476 7.25 8.19226C7.25 7.22976 7.59275 6.40584 8.27825 5.72051C8.96358 5.03501 9.7875 4.69226 10.75 4.69226C11.7125 4.69226 12.5364 5.03501 13.2218 5.72051C13.9073 6.40584 14.25 7.22976 14.25 8.19226C14.25 9.15476 13.9073 9.97876 13.2218 10.6643C12.5364 11.3496 11.7125 11.6923 10.75 11.6923ZM10.75 10.1923C11.3 10.1923 11.7708 9.99643 12.1625 9.60476C12.5542 9.21309 12.75 8.74226 12.75 8.19226C12.75 7.64226 12.5542 7.17143 12.1625 6.77976C11.7708 6.38809 11.3 6.19226 10.75 6.19226C10.2 6.19226 9.72917 6.38809 9.3375 6.77976C8.94583 7.17143 8.75 7.64226 8.75 8.19226C8.75 8.74226 8.94583 9.21309 9.3375 9.60476C9.72917 9.99643 10.2 10.1923 10.75 10.1923Z" fill="#202128"/>
</g>
</svg>
