<svg width="24" height="24" viewBox="0 0 24 24" fill="none" xmlns="http://www.w3.org/2000/svg">
<mask id="mask0_503_6845" style="mask-type:alpha" maskUnits="userSpaceOnUse" x="0" y="0" width="24" height="24">
<rect width="24" height="24" fill="#D9D9D9"/>
</mask>
<g mask="url(#mask0_503_6845)">
<path d="M5.44411 16.8325C5.14927 16.6685 4.91819 16.4472 4.75086 16.1685C4.58352 15.8898 4.49986 15.5773 4.49986 15.2308V10.8923L2.50386 9.78851C2.33969 9.69485 2.21919 9.58093 2.14236 9.44676C2.06536 9.31276 2.02686 9.16376 2.02686 8.99976C2.02686 8.83576 2.06536 8.68685 2.14236 8.55301C2.21919 8.41901 2.33969 8.30518 2.50386 8.21151L10.1389 4.05151C10.2744 3.97618 10.4139 3.92085 10.5576 3.88551C10.7013 3.85035 10.8487 3.83276 10.9999 3.83276C11.151 3.83276 11.2984 3.85035 11.4421 3.88551C11.5858 3.92085 11.7255 3.9761 11.8614 4.05126L20.4844 8.74426C20.6382 8.8276 20.7562 8.94026 20.8384 9.08226C20.9204 9.22443 20.9614 9.37776 20.9614 9.54226V15.4423C20.9614 15.6548 20.8894 15.8329 20.7456 15.9768C20.6018 16.1204 20.4236 16.1923 20.2111 16.1923C19.9984 16.1923 19.8204 16.1204 19.6769 15.9768C19.5332 15.8329 19.4614 15.6548 19.4614 15.4423V9.83076L17.4999 10.8923V15.2308C17.4999 15.5773 17.4162 15.8898 17.2489 16.1685C17.0815 16.4472 16.8504 16.6685 16.5556 16.8325L11.8634 19.3693C11.7262 19.4461 11.5858 19.5022 11.4421 19.5375C11.2984 19.5727 11.151 19.5903 10.9999 19.5903C10.8487 19.5903 10.7013 19.5727 10.5576 19.5375C10.4139 19.5022 10.2735 19.4461 10.1364 19.3693L5.44411 16.8325ZM10.8844 12.6423C10.9294 12.6679 10.9694 12.6808 11.0046 12.6808C11.0399 12.6808 11.08 12.6679 11.1249 12.6423L17.8404 9.00001L11.1249 5.36726C11.08 5.3416 11.0399 5.32876 11.0046 5.32876C10.9694 5.32876 10.9294 5.3416 10.8844 5.36726L4.15936 9.00001L10.8844 12.6423ZM10.8749 18.071C10.9197 18.0967 10.9614 18.1095 10.9999 18.1095C11.0384 18.1095 11.08 18.0967 11.1249 18.071L15.8556 15.5153C15.9069 15.4833 15.9438 15.4464 15.9661 15.4048C15.9886 15.3631 15.9999 15.3102 15.9999 15.246V11.6923L11.8786 13.9558C11.7414 14.0326 11.5992 14.0887 11.4519 14.124C11.3044 14.1593 11.1537 14.177 10.9999 14.177C10.846 14.177 10.6954 14.1593 10.5479 14.124C10.4005 14.0887 10.2583 14.0326 10.1211 13.9558L5.99986 11.6923V15.246C5.99986 15.2973 6.01111 15.3471 6.03361 15.3953C6.05594 15.4433 6.09277 15.4833 6.14411 15.5153L10.8749 18.071Z" fill="#202128"/>
</g>
</svg>
